<?xml version="1.0" standalone="no"?>
<!DOCTYPE svg PUBLIC "-//W3C//DTD SVG 20010904//EN"
 "http://www.w3.org/TR/2001/REC-SVG-20010904/DTD/svg10.dtd">
<svg version="1.0" xmlns="http://www.w3.org/2000/svg"
 width="200.000000pt" height="259.000000pt" viewBox="0 0 200.000000 259.000000"
 preserveAspectRatio="xMidYMid meet">

<g transform="translate(0.000000,259.000000) scale(0.100000,-0.100000)"
fill="#000000" stroke="none">
<path d="M815 2579 c-129 -13 -274 -44 -395 -84 -164 -55 -176 -64 -222 -169
-83 -190 -144 -412 -179 -656 -19 -128 -16 -498 5 -655 34 -253 104 -553 188
-809 l33 -100 80 -18 c154 -36 368 -68 535 -79 256 -18 518 5 785 67 61 15
113 29 118 33 14 13 97 274 133 416 130 513 134 989 14 1460 -40 156 -119 391
-144 430 -30 46 -254 120 -451 150 -126 19 -382 27 -500 14z m413 -20 c171
-18 340 -61 464 -116 64 -28 67 -34 131 -219 181 -521 204 -1096 67 -1658 -46
-189 -128 -434 -148 -445 -27 -14 -237 -60 -352 -77 -170 -24 -459 -29 -640
-10 -149 16 -448 70 -481 87 -18 9 -85 218 -140 434 -128 509 -142 975 -43
1384 31 124 90 299 137 402 l34 75 97 37 c261 100 579 139 874 106z"/>
<path d="M810 2385 l0 -75 60 0 c48 0 60 3 60 16 0 12 -9 15 -42 12 -33 -2
-44 1 -46 13 -2 12 8 18 38 23 52 8 52 26 0 26 -53 0 -56 27 -3 32 62 5 53 28
-11 28 l-56 0 0 -75z"/>
<path d="M1000 2385 c0 -60 3 -75 15 -75 11 0 15 12 15 48 l0 47 31 -48 c16
-27 35 -47 42 -44 7 2 13 31 15 75 2 60 0 72 -13 72 -11 0 -15 -11 -15 -47
l-1 -48 -27 47 c-16 29 -34 48 -44 48 -16 0 -18 -10 -18 -75z"/>
<path d="M1216 2428 c-35 -50 -7 -128 47 -128 52 0 67 11 67 46 0 31 -3 34
-30 34 -31 0 -41 -16 -15 -26 25 -10 17 -24 -14 -24 -41 0 -57 52 -25 84 19
20 29 20 48 1 18 -18 36 -19 36 -2 0 41 -88 53 -114 15z"/>
<path d="M695 2393 l7 -48 -33 43 c-42 53 -74 58 -65 10 3 -18 8 -52 12 -75 4
-28 12 -43 21 -43 11 0 13 10 7 48 l-7 47 39 -43 c52 -57 64 -47 52 41 -8 49
-14 67 -25 67 -12 0 -14 -9 -8 -47z"/>
<path d="M1434 2363 c-20 -31 -38 -62 -41 -70 -7 -19 24 -16 35 3 11 21 59 9
67 -17 5 -15 35 -29 35 -16 0 9 -22 124 -26 140 -9 31 -33 18 -70 -40z m49
-13 c4 -15 0 -20 -14 -20 -17 0 -18 3 -9 20 6 11 12 20 14 20 2 0 6 -9 9 -20z"/>
<path d="M456 2399 c-22 -5 -41 -11 -43 -13 -2 -1 4 -34 13 -73 l16 -70 50 11
c69 15 79 40 13 30 -42 -6 -47 -5 -43 12 2 12 14 21 32 24 16 3 31 11 34 19 4
11 -4 13 -37 7 -32 -5 -41 -3 -41 8 0 15 21 26 51 26 10 0 19 7 19 15 0 17 -7
17 -64 4z"/>
<path d="M1648 2258 c-32 -11 -58 -24 -58 -28 0 -16 18 -20 43 -11 20 8 27 6
31 -5 11 -30 6 -44 -19 -50 -28 -7 -34 -34 -7 -33 39 2 117 36 120 54 3 15 -1
17 -24 11 -18 -5 -30 -3 -35 6 -14 22 -10 34 17 46 14 7 22 17 19 22 -8 13
-20 12 -87 -12z"/>
<path d="M259 2260 c-1 -5 -2 -15 -3 -20 -1 -6 17 -21 39 -35 l40 -24 -53 -1
c-49 0 -53 -2 -50 -22 5 -34 138 -76 138 -43 0 8 -15 17 -37 22 l-38 8 44 5
c25 3 46 10 48 17 2 6 -15 23 -39 38 -24 14 -34 24 -23 21 68 -18 75 -18 75
-3 0 9 -21 20 -58 31 -68 19 -81 20 -83 6z"/>
<path d="M806 2214 c-96 -15 -225 -53 -289 -85 -44 -23 -64 -62 -117 -224 -92
-287 -109 -606 -50 -951 31 -183 111 -486 134 -511 15 -17 159 -48 309 -68
209 -27 420 -15 636 35 108 26 98 12 156 210 140 484 131 957 -27 1404 l-31
89 -61 28 c-168 79 -435 108 -660 73z m621 -376 c29 -29 53 -56 53 -60 0 -4
-29 -8 -65 -8 l-65 0 0 -35 c0 -34 -1 -35 -40 -35 -39 0 -40 1 -40 35 l0 35
-60 0 -60 0 0 -35 c0 -33 -2 -35 -35 -35 -33 0 -35 2 -35 35 l0 35 -60 0 -60
0 0 -36 c0 -34 -1 -35 -32 -32 -29 3 -33 7 -36 36 l-3 32 -61 0 -60 0 4 -35 4
-35 -43 0 c-42 0 -43 0 -43 35 l0 35 -65 0 c-36 0 -65 2 -65 5 0 2 23 29 51
59 32 35 60 56 77 58 15 2 175 2 357 1 l329 -3 53 -52z m-877 -108 c0 -27 -3
-30 -32 -30 l-32 0 29 30 c16 17 30 30 32 30 2 0 3 -13 3 -30z m975 0 l29 -30
-32 0 c-29 0 -32 3 -32 30 0 17 1 30 3 30 2 0 16 -13 32 -30z m-931 -71 c52
-41 67 -107 26 -121 -6 -2 0 -18 14 -37 23 -31 24 -35 10 -57 -9 -13 -24 -26
-35 -29 -23 -8 -24 -18 -4 -35 9 -7 25 -26 36 -42 l20 -28 -31 -31 -31 -32 30
-31 c38 -39 38 -49 5 -75 l-27 -21 42 -45 c22 -24 41 -47 41 -51 0 -3 -13 -19
-30 -34 l-30 -28 35 -26 c37 -29 44 -55 20 -80 -8 -8 -15 -17 -15 -20 0 -2 23
-17 50 -32 28 -15 50 -33 50 -41 0 -29 -29 -80 -59 -106 -26 -22 -43 -27 -86
-27 -36 0 -57 5 -66 16 -16 20 -12 88 7 126 18 35 18 38 -6 38 -12 0 -34 7
-51 16 -33 17 -33 31 2 93 19 32 19 34 2 47 -10 7 -20 14 -23 14 -3 0 -11 4
-18 9 -11 7 -11 15 2 45 8 20 23 44 32 53 15 16 15 17 -6 25 -12 4 -32 16 -45
26 -18 14 -20 22 -13 42 5 14 19 35 31 48 l21 22 -32 30 -32 29 21 36 c12 19
28 39 37 44 14 8 11 13 -16 36 -18 15 -32 30 -32 34 0 5 11 24 24 44 22 31 22
36 8 50 -13 13 -13 20 -2 47 13 31 65 80 86 80 6 0 23 -9 38 -21z m364 -34
l52 -16 0 -124 0 -123 -72 -4 c-40 -2 -76 1 -81 7 -5 6 -28 55 -52 110 -41 95
-42 101 -26 118 18 19 83 46 112 47 8 0 39 -7 67 -15z m257 -4 c68 -31 69 -34
18 -153 -25 -59 -51 -108 -57 -110 -6 -2 -41 -2 -78 0 l-68 4 0 124 0 123 48
15 c63 20 89 19 137 -3z m321 -43 c4 -22 1 -46 -9 -63 l-15 -29 -16 32 c-19
36 -21 75 -5 104 10 18 13 18 25 6 8 -8 17 -30 20 -50z m-36 -144 l0 -47 -21
19 c-29 25 -59 91 -59 129 l1 30 39 -42 c35 -37 40 -48 40 -89z m100 58 c-14
-42 -56 -102 -71 -102 -7 0 -8 15 -4 43 9 54 21 77 53 104 33 28 40 13 22 -45z
m-114 -139 c16 -38 19 -93 4 -93 -19 0 -60 77 -66 125 l-7 50 28 -25 c15 -14
34 -39 41 -57z m110 9 c-9 -26 -30 -64 -46 -83 l-29 -34 -1 45 c0 48 18 84 60
118 32 26 36 14 16 -46z m-751 -62 c4 -6 -8 -33 -25 -61 -39 -60 -33 -78 7
-20 27 39 63 55 63 28 0 -7 -11 -29 -25 -49 -27 -40 -35 -77 -9 -43 43 58 55
67 70 55 19 -17 18 -24 -11 -58 -14 -17 -25 -36 -25 -43 1 -8 11 -1 24 15 16
19 30 27 40 23 25 -10 19 -40 -14 -72 -16 -16 -30 -34 -30 -41 0 -7 20 -33 45
-57 72 -73 81 -115 39 -193 -20 -37 -28 -68 -32 -126 -5 -86 -12 -93 -66 -60
l-28 17 1 111 c1 60 -3 123 -9 138 -6 15 -40 60 -76 100 l-66 71 4 75 c4 70 8
79 49 137 43 61 61 74 74 53z m433 -43 c44 -59 62 -109 62 -175 0 -38 -6 -49
-59 -106 -86 -92 -91 -105 -91 -239 0 -124 -6 -138 -61 -152 -31 -8 -39 10
-39 93 0 37 -8 68 -26 104 -40 78 -31 125 35 192 28 28 51 56 51 61 0 5 -17
26 -37 47 -35 36 -36 39 -20 55 16 16 18 15 42 -7 34 -32 42 -20 10 18 -28 34
-32 57 -10 65 9 4 26 -8 44 -30 41 -49 47 -38 11 17 -35 53 -36 60 -11 60 12
0 32 -17 48 -40 26 -37 43 -50 43 -32 0 4 -14 25 -30 46 -32 42 -39 76 -16 76
7 0 32 -24 54 -53z m175 10 c41 -55 51 -159 11 -126 -24 19 -41 60 -49 112 -9
56 2 60 38 14z m133 -49 c-18 -42 -65 -100 -76 -93 -9 6 2 72 18 102 6 11 24
30 39 41 26 19 28 19 31 4 2 -10 -4 -34 -12 -54z m-141 -87 c22 -32 26 -48 23
-92 l-3 -54 -27 40 c-16 24 -30 61 -34 93 -8 64 5 68 41 13z m131 -45 c-17
-43 -71 -105 -82 -93 -17 16 10 83 48 122 47 46 59 36 34 -29z m-148 -86 c22
-33 32 -123 14 -134 -15 -9 -50 67 -58 123 -8 63 6 66 44 11z m142 -15 c-19
-51 -40 -84 -66 -104 -37 -29 -43 -26 -35 12 11 46 27 72 58 96 39 29 55 27
43 -4z m-158 -132 c13 -31 17 -53 12 -84 l-7 -42 -18 22 c-23 28 -39 84 -39
135 0 35 2 37 17 25 9 -8 25 -33 35 -56z m138 17 c0 -37 -90 -153 -106 -137
-16 15 18 87 54 116 39 33 52 38 52 21z m-155 -171 c8 -33 -2 -89 -16 -89 -24
0 -57 126 -43 164 5 14 10 12 30 -15 12 -17 26 -44 29 -60z m125 26 c-20 -54
-41 -84 -70 -105 -17 -12 -33 -20 -36 -17 -3 3 0 24 6 46 8 30 22 50 52 71 50
37 60 38 48 5z"/>
<path d="M848 1533 c7 -3 16 -2 19 1 4 3 -2 6 -13 5 -11 0 -14 -3 -6 -6z"/>
<path d="M1163 1573 c9 -2 23 -2 30 0 6 3 -1 5 -18 5 -16 0 -22 -2 -12 -5z"/>
<path d="M820 1015 c0 -25 5 -45 10 -45 6 0 10 16 10 37 0 35 0 36 20 18 12
-11 20 -31 20 -51 0 -25 9 -42 35 -67 19 -19 35 -39 35 -46 0 -6 5 -11 10 -11
21 0 9 31 -24 60 -24 23 -35 42 -39 73 -4 26 -14 48 -27 59 -37 30 -50 23 -50
-27z"/>
<path d="M1185 1035 c-16 -15 -25 -35 -25 -56 0 -23 -9 -40 -35 -63 -19 -18
-35 -40 -35 -50 0 -11 16 1 45 34 35 39 45 58 45 85 0 24 6 37 20 45 18 10 20
8 20 -27 0 -28 3 -34 10 -23 5 8 10 30 10 48 0 40 -20 42 -55 7z"/>
<path d="M1728 2012 c-61 -17 -79 -42 -30 -42 42 0 46 -10 16 -41 -18 -19 -24
-33 -19 -46 6 -16 11 -13 41 21 l35 40 30 -18 c17 -10 32 -16 35 -13 11 11
-10 35 -44 52 l-37 18 28 9 c15 5 27 16 27 24 0 17 -9 17 -82 -4z"/>
<path d="M157 1884 c-14 -14 -7 -22 24 -29 21 -5 29 -11 25 -22 -3 -8 -6 -19
-6 -24 0 -5 -13 -9 -30 -9 -19 0 -30 -5 -30 -14 0 -9 21 -18 63 -25 79 -14 77
-14 77 3 0 8 -10 16 -22 18 -17 2 -24 11 -26 32 -4 28 -2 29 32 23 30 -5 36
-3 36 12 0 14 -11 20 -45 24 -25 4 -55 9 -68 12 -12 3 -26 3 -30 -1z"/>
<path d="M1772 1816 c-29 -6 -53 -13 -54 -16 0 -3 3 -29 7 -58 9 -65 32 -67
27 -3 -3 37 -1 42 14 39 12 -2 21 -15 24 -33 7 -40 26 -32 22 10 -4 49 25 48
34 0 4 -21 12 -35 21 -35 9 0 12 6 9 18 -3 9 -8 34 -12 55 -7 41 -7 41 -92 23z"/>
<path d="M175 1662 c-36 -10 -61 -23 -63 -32 -2 -10 21 -29 62 -53 36 -20 68
-37 71 -37 10 0 5 28 -9 39 -18 15 -8 62 15 68 24 7 25 33 2 32 -10 0 -45 -8
-78 -17z m25 -47 c0 -13 -4 -14 -20 -5 -11 6 -20 13 -20 15 0 3 9 5 20 5 11 0
20 -7 20 -15z"/>
<path d="M1750 1609 c-9 -16 -8 -26 5 -46 15 -23 21 -25 62 -19 25 3 54 6 64
6 11 0 19 7 19 16 0 15 -8 16 -60 11 -60 -7 -84 3 -61 26 15 15 14 27 -4 27
-8 0 -19 -9 -25 -21z"/>
<path d="M218 1448 l-3 -33 -62 3 c-50 3 -63 1 -63 -11 0 -15 47 -27 113 -27
36 0 37 1 37 34 0 19 3 41 6 50 4 10 1 16 -9 16 -10 0 -17 -11 -19 -32z"/>
<path d="M1776 1444 c-9 -8 -16 -28 -16 -44 0 -45 23 -60 91 -60 53 0 59 2 59
21 0 18 -5 20 -57 17 -56 -3 -58 -2 -58 22 0 23 4 25 54 30 31 3 56 10 59 18
6 19 -112 16 -132 -4z"/>
<path d="M140 1303 c-31 -12 -50 -37 -50 -68 0 -43 18 -64 62 -71 30 -5 41 -2
62 19 30 30 33 66 9 95 -19 23 -59 34 -83 25z m68 -65 c4 -38 -39 -57 -74 -33
-27 18 -28 19 -13 46 8 16 19 19 47 17 32 -3 37 -7 40 -30z"/>
<path d="M1760 1245 c0 -10 10 -15 30 -15 19 0 30 -5 30 -14 0 -8 -13 -23 -30
-33 -16 -9 -30 -26 -30 -36 0 -18 1 -18 34 1 28 17 35 18 40 6 7 -17 47 -19
64 -2 7 7 12 34 12 60 l0 48 -75 0 c-60 0 -75 -3 -75 -15z m120 -45 c0 -20 -5
-30 -15 -30 -10 0 -15 10 -15 30 0 20 5 30 15 30 10 0 15 -10 15 -30z"/>
<path d="M197 1069 l-37 -30 -27 21 c-25 20 -28 20 -31 5 -2 -9 4 -23 15 -30
61 -44 61 -44 26 -45 -23 0 -33 -5 -33 -15 0 -17 28 -19 104 -9 48 7 67 34 24
34 -13 0 -30 4 -37 9 -12 8 -11 13 10 30 13 11 27 20 32 21 10 0 9 28 -1 34
-5 3 -25 -9 -45 -25z"/>
<path d="M1762 1048 c-6 -8 -15 -28 -18 -44 -8 -41 17 -61 89 -69 48 -6 57 -5
57 8 0 11 -14 18 -47 22 -67 9 -73 12 -73 35 0 22 4 23 78 20 42 -1 52 1 52
14 0 9 -8 16 -19 16 -10 0 -38 3 -62 6 -33 5 -48 2 -57 -8z"/>
<path d="M256 855 c5 -37 4 -45 -10 -45 -9 0 -19 13 -24 32 -4 17 -14 34 -21
36 -10 3 -12 -5 -6 -37 5 -33 4 -41 -9 -41 -9 0 -18 13 -22 35 -4 21 -12 35
-21 35 -9 0 -12 -6 -9 -17 3 -10 8 -35 12 -55 3 -21 10 -38 16 -38 5 0 38 7
74 16 49 13 64 20 60 31 -4 8 -9 32 -12 54 -4 24 -12 39 -21 39 -11 0 -13 -9
-7 -45z"/>
<path d="M1726 865 c-3 -9 1 -18 9 -21 25 -10 17 -51 -12 -72 -16 -11 -25 -23
-22 -27 12 -11 151 18 157 33 6 17 -26 46 -88 81 -33 18 -39 19 -44 6z m84
-65 c9 -6 10 -10 3 -10 -6 0 -18 -3 -27 -6 -11 -4 -16 -1 -16 10 0 18 17 21
40 6z"/>
<path d="M255 694 c-9 -9 -15 -28 -15 -43 3 -42 1 -53 -11 -45 -6 3 -9 17 -6
30 5 28 -7 49 -22 40 -14 -9 -14 -51 -1 -77 12 -21 50 -25 68 -7 7 7 12 29 12
51 0 49 25 46 26 -4 1 -50 3 -53 19 -39 32 27 6 110 -35 110 -10 0 -26 -7 -35
-16z"/>
<path d="M1680 656 c0 -8 15 -17 35 -20 42 -8 38 -21 -9 -30 -32 -6 -64 -31
-54 -42 10 -9 137 -42 142 -36 13 13 4 22 -35 32 -48 13 -47 16 12 33 65 19
62 41 -9 61 -71 20 -82 20 -82 2z"/>
<path d="M309 454 c-10 -12 -9 -18 4 -31 13 -13 19 -14 31 -3 21 17 20 27 -3
39 -14 8 -22 7 -32 -5z"/>
<path d="M1653 403 c-7 -3 -13 -13 -13 -23 0 -19 17 -30 38 -23 6 3 12 13 12
23 0 19 -17 30 -37 23z"/>
<path d="M439 337 c-6 -23 -12 -55 -13 -72 -1 -27 3 -30 41 -39 49 -10 75 4
72 38 -1 12 2 29 6 40 12 28 -6 49 -53 63 l-42 12 -11 -42z m79 -14 c2 -8 -6
-13 -22 -13 -17 0 -26 5 -26 16 0 19 41 16 48 -3z m-17 -43 c5 0 9 -7 9 -15 0
-17 -45 -21 -55 -5 -9 15 5 32 22 26 8 -3 19 -6 24 -6z"/>
<path d="M1500 363 c-51 -19 -68 -85 -30 -123 49 -49 147 2 111 58 -10 17 -61
5 -61 -15 0 -10 6 -12 20 -8 24 8 27 -10 4 -23 -26 -14 -54 -2 -61 26 -9 38 9
57 51 54 42 -3 48 14 10 28 -14 6 -26 10 -27 9 -1 0 -9 -3 -17 -6z"/>
<path d="M610 266 c-35 -65 -36 -93 -2 -63 26 24 63 22 69 -3 3 -11 12 -20 19
-20 17 0 17 -2 -3 81 -21 89 -37 90 -83 5z m48 -25 c-15 -6 -20 7 -12 31 l8
23 6 -25 c3 -14 2 -27 -2 -29z"/>
<path d="M1366 288 l5 -43 -31 38 c-45 53 -64 50 -56 -9 3 -26 6 -57 6 -70 0
-16 6 -24 16 -24 14 0 16 8 11 43 l-6 42 35 -38 c36 -39 70 -44 61 -10 -3 10
-8 39 -12 66 -4 31 -11 47 -21 47 -11 0 -13 -9 -8 -42z"/>
<path d="M770 263 c0 -27 -3 -58 -6 -70 -5 -17 -2 -23 10 -23 10 0 16 9 16 23
0 12 4 28 9 36 7 11 13 6 26 -20 36 -69 52 -60 57 30 4 75 -15 96 -27 29 l-7
-43 -21 43 c-30 60 -57 58 -57 -5z"/>
<path d="M958 302 c-15 -3 -18 -15 -18 -73 l0 -69 40 0 c51 0 80 27 80 73 0
49 -47 81 -102 69z m61 -36 c7 -8 11 -27 9 -43 -2 -22 -9 -29 -30 -31 -27 -3
-28 -2 -28 42 0 38 3 46 19 46 10 0 24 -6 30 -14z"/>
<path d="M1121 301 c-20 -13 -4 -119 20 -131 26 -15 55 -12 73 6 22 21 23 134
1 134 -10 0 -15 -15 -17 -57 -3 -51 -6 -58 -25 -61 -14 -2 -23 2 -24 10 0 19
-11 103 -13 105 -1 1 -7 -2 -15 -6z"/>
</g>
</svg>
